# xmcd
# Track frame offsets:
# 150
# 14458
# 31393
# 47001
# 64729
# 89068
# 101706
# 116907
# 133281
# 151181
# 167876
# 180451
# 195127
# 210001
# 229026
# 245850
# 263443
# 280840
# 297187
#
# Disc length: 4161 seconds
# Revision: 2
# Processed by: cddbd v1.5.2PL0 Copyright (c) Steve Scherf et al.
# Submitted via: VisiTrax 2.10.3.257 - For more info visit www.synapsa.com
#
DISCID=0a103f13
DTITLE=Various Artist - Promo Only Country October 2007
DYEAR=2007
DGENRE=Country
TTITLE0=Trace Adkins - I Got My Game On
TTITLE1=Carrie Underwood - So Small
TTITLE2=Josh Turner - Firecracker
TTITLE3=George Strait - How 'Bout Them Cowgirls
TTITLE4=Keith Urban - Everybody
TTITLE5=The Roys - Workin' Girl Blues
TTITLE6=Jason Aldean - Laughed Until We Cried
TTITLE7=Montgomery Gentry - What Do Ya Think About That
TTITLE8=Little Big Town - I'm With The Band
TTITLE9=Big and Rich - Between Raising Hell and Amazing Grace
TTITLE10=Mark Chesnutt - Rollin' With The Flow
TTITLE11=Andy Griggs - Tattoo Rose
TTITLE12=Kristina Cornell - It's A Girl Thing
TTITLE13=Cody McCarver - Through God's Eyes
TTITLE14=Mud Hog - I Don't Know If I'm Coming Home
TTITLE15=James Otto - Just Got Started Lovin' You
TTITLE16=Trent Willmon - There Is A God
TTITLE17=Bomshel - The Power of One
TTITLE18=Marty Stuart feat. Merle Haggard - Farmer's Blues
EXTD=
EXTT0=
EXTT1=
EXTT2=
EXTT3=
EXTT4=
EXTT5=
EXTT6=
EXTT7=
EXTT8=
EXTT9=
EXTT10=
EXTT11=
EXTT12=
EXTT13=
EXTT14=
EXTT15=
EXTT16=
EXTT17=
EXTT18=
PLAYORDER=
